<?xml version="1.0" encoding="UTF-8" standalone="no"?>
<!--?xml version="1.0" encoding="utf-8"?-->

<!-- Generator: Adobe Illustrator 15.1.0, SVG Export Plug-In . SVG Version: 6.00 Build 0)  -->

<svg
   version="1.1"
   id="_x32_"
   x="0px"
   y="0px"
   width="512px"
   height="512px"
   viewBox="0 0 512 512"
   style="width: 256px; height: 256px; opacity: 1;"
   xml:space="preserve"
   sodipodi:docname="star-half.svg"
   inkscape:version="1.4.3 (0d15f75, 2025-12-25)"
   xmlns:inkscape="http://www.inkscape.org/namespaces/inkscape"
   xmlns:sodipodi="http://sodipodi.sourceforge.net/DTD/sodipodi-0.dtd"
   xmlns="http://www.w3.org/2000/svg"
   xmlns:svg="http://www.w3.org/2000/svg"><defs
   id="defs1" /><sodipodi:namedview
   id="namedview1"
   pagecolor="#ffffff"
   bordercolor="#000000"
   borderopacity="0.25"
   inkscape:showpageshadow="2"
   inkscape:pageopacity="0.0"
   inkscape:pagecheckerboard="0"
   inkscape:deskcolor="#d1d1d1"
   inkscape:zoom="1.5761719"
   inkscape:cx="256.95167"
   inkscape:cy="300.72862"
   inkscape:window-width="1127"
   inkscape:window-height="1032"
   inkscape:window-x="2604"
   inkscape:window-y="319"
   inkscape:window-maximized="0"
   inkscape:current-layer="_x32_" />
<style
   type="text/css"
   id="style1">

	.st0{fill:#f5c542;}

</style>
<path
   id="path4"
   style="fill:#f5c542"
   d="m 255.98889,9.09375 c 27.313,0 51.76745,15.218875 63.81445,39.671875 l 38.9043,78.828125 c 1.032,2.093 3.01745,3.52942 5.31445,3.85742 l 86.98438,12.64258 c 26.985,3.907 49.01575,22.4685 57.46875,48.4375 8.422,25.953 1.51342,53.90612 -18.01758,72.95313 l -62.9375,61.34374 c -1.672,1.64 -2.43787,3.95338 -2.04687,6.23438 l 14.89062,86.67188 c 4.578,26.875 -6.28112,53.53112 -28.32812,69.57812 -12.235,8.875 -26.70275,13.59375 -41.84375,13.59375 -11.484,0 -22.93738,-2.8435 -33.10938,-8.1875 l -77.79687,-40.89258 c -2.031,-1.078 -4.56213,-1.078 -6.57813,0 l -77.79687,40.89258 c -10.187,5.344 -21.641,8.1875 -33.125,8.1875 -15.14,0 -29.5935,-4.7187 -41.8125,-13.5957 -22.062,-16.031 -32.92213,-42.68738 -28.32813,-69.60938 l 14.85938,-86.60742 c 0.39,-2.312 -0.35963,-4.625 -2.01563,-6.25 L 21.53577,265.48438 C 2.0047697,246.43839 -4.9022303,218.484 3.5357697,192.5 11.97277,166.563 33.98889,147.99975 60.98889,144.09375 l 86.96875,-12.64063 c 2.297,-0.328 4.2815,-1.76537 5.3125,-3.85937 l 38.90625,-78.8125 c 12.063,-24.469 36.5155,-39.6875 63.8125,-39.6875 z m 0,64.419922 V 388.875 c 11.5,0 22.954,2.8435 33.125,8.1875 l 77.79688,40.90625 c 1.969,1.032 4.20287,1.79675 7.42187,-0.53125 2.188,-1.594 3.2655,-4.25 2.8125,-6.875 l -14.875,-86.67188 c -3.937,-23.07798 3.70275,-46.60975 20.46875,-62.96874 l 62.95313,-61.35938 c 1.938,-1.875 2.62487,-4.65575 1.79687,-7.21875 -0.828,-2.531 -3.06212,-4.40588 -5.70312,-4.79687 l -87.01563,-12.64063 c -23.172,-3.375 -43.2035,-17.93787 -53.5625,-38.92187 L 262.30139,77.125 c -1.19623,-2.40897 -3.75525,-3.615814 -6.3125,-3.611328 z" />
</svg>
